<mxfile host="app.diagrams.net" agent="Mozilla/5.0 (Macintosh; Intel Mac OS X 10_15_7) AppleWebKit/537.36 (KHTML, like Gecko) Chrome/129.0.0.0 Safari/537.36" version="26.0.11">
  <diagram name="Page-1" id="5d7acffa-a066-3a61-03fe-96351882024d">
    <mxGraphModel grid="1" page="1" gridSize="10" guides="1" tooltips="1" connect="1" arrows="1" fold="1" pageScale="1" pageWidth="1100" pageHeight="850" background="#ffffff" math="0" shadow="0">
      <root>
        <mxCell id="0" />
        <mxCell id="1" parent="0" />
        <mxCell id="jCN_hGYt88QSV7jJhECM-30" style="edgeStyle=orthogonalEdgeStyle;rounded=0;orthogonalLoop=1;jettySize=auto;html=1;exitX=0.5;exitY=1;exitDx=0;exitDy=0;entryX=0.5;entryY=0;entryDx=0;entryDy=0;" edge="1" parent="1" source="jCN_hGYt88QSV7jJhECM-3" target="jCN_hGYt88QSV7jJhECM-9">
          <mxGeometry relative="1" as="geometry" />
        </mxCell>
        <mxCell id="jCN_hGYt88QSV7jJhECM-34" style="edgeStyle=orthogonalEdgeStyle;rounded=0;orthogonalLoop=1;jettySize=auto;html=1;exitX=0.5;exitY=1;exitDx=0;exitDy=0;entryX=0.5;entryY=0;entryDx=0;entryDy=0;" edge="1" parent="1" source="jCN_hGYt88QSV7jJhECM-3" target="jCN_hGYt88QSV7jJhECM-8">
          <mxGeometry relative="1" as="geometry" />
        </mxCell>
        <mxCell id="jCN_hGYt88QSV7jJhECM-35" style="edgeStyle=orthogonalEdgeStyle;rounded=0;orthogonalLoop=1;jettySize=auto;html=1;" edge="1" parent="1" source="jCN_hGYt88QSV7jJhECM-3" target="jCN_hGYt88QSV7jJhECM-10">
          <mxGeometry relative="1" as="geometry" />
        </mxCell>
        <mxCell id="9p-89qfDhQ7Q1FShynDC-36" style="edgeStyle=orthogonalEdgeStyle;rounded=0;orthogonalLoop=1;jettySize=auto;html=1;entryX=0.5;entryY=0;entryDx=0;entryDy=0;" edge="1" parent="1" source="jCN_hGYt88QSV7jJhECM-3" target="9p-89qfDhQ7Q1FShynDC-33">
          <mxGeometry relative="1" as="geometry">
            <Array as="points">
              <mxPoint x="660" y="250" />
              <mxPoint x="1075" y="250" />
            </Array>
          </mxGeometry>
        </mxCell>
        <mxCell id="jCN_hGYt88QSV7jJhECM-3" value="Homescreen" style="html=1;dashed=0;whiteSpace=wrap;fillColor=#dae8fc;strokeColor=#6c8ebf;" vertex="1" parent="1">
          <mxGeometry x="610" y="150" width="100" height="70" as="geometry" />
        </mxCell>
        <mxCell id="jCN_hGYt88QSV7jJhECM-19" style="edgeStyle=orthogonalEdgeStyle;rounded=0;orthogonalLoop=1;jettySize=auto;html=1;exitX=0.5;exitY=0;exitDx=0;exitDy=0;entryX=0.5;entryY=1;entryDx=0;entryDy=0;" edge="1" parent="1" source="jCN_hGYt88QSV7jJhECM-4" target="jCN_hGYt88QSV7jJhECM-6">
          <mxGeometry relative="1" as="geometry" />
        </mxCell>
        <mxCell id="jCN_hGYt88QSV7jJhECM-4" value="External User" style="html=1;dashed=0;whiteSpace=wrap;fillColor=#d5e8d4;strokeColor=#82b366;" vertex="1" parent="1">
          <mxGeometry x="50" y="330" width="100" height="70" as="geometry" />
        </mxCell>
        <mxCell id="jCN_hGYt88QSV7jJhECM-5" value="&amp;nbsp; &amp;nbsp; &amp;nbsp; &amp;nbsp; &amp;nbsp; Accounts database" style="html=1;dashed=0;whiteSpace=wrap;shape=mxgraph.dfd.dataStoreID;align=left;spacingLeft=3;points=[[0,0],[0.5,0],[1,0],[0,0.5],[1,0.5],[0,1],[0.5,1],[1,1]];fillColor=#e1d5e7;strokeColor=#9673a6;" vertex="1" parent="1">
          <mxGeometry x="340" y="30" width="150" height="30" as="geometry" />
        </mxCell>
        <mxCell id="jCN_hGYt88QSV7jJhECM-22" style="edgeStyle=orthogonalEdgeStyle;rounded=0;orthogonalLoop=1;jettySize=auto;html=1;exitX=0.5;exitY=0;exitDx=0;exitDy=0;entryX=0.5;entryY=1;entryDx=0;entryDy=0;" edge="1" parent="1" source="jCN_hGYt88QSV7jJhECM-6" target="jCN_hGYt88QSV7jJhECM-20">
          <mxGeometry relative="1" as="geometry" />
        </mxCell>
        <mxCell id="jCN_hGYt88QSV7jJhECM-23" style="edgeStyle=orthogonalEdgeStyle;rounded=0;orthogonalLoop=1;jettySize=auto;html=1;exitX=1;exitY=0.5;exitDx=0;exitDy=0;" edge="1" parent="1" source="jCN_hGYt88QSV7jJhECM-6" target="jCN_hGYt88QSV7jJhECM-21">
          <mxGeometry relative="1" as="geometry">
            <Array as="points">
              <mxPoint x="150" y="250" />
              <mxPoint x="190" y="250" />
              <mxPoint x="190" y="295" />
            </Array>
          </mxGeometry>
        </mxCell>
        <mxCell id="jCN_hGYt88QSV7jJhECM-6" value="Login screen" style="html=1;dashed=0;whiteSpace=wrap;fillColor=#dae8fc;strokeColor=#6c8ebf;" vertex="1" parent="1">
          <mxGeometry x="50" y="190" width="100" height="70" as="geometry" />
        </mxCell>
        <mxCell id="jCN_hGYt88QSV7jJhECM-28" style="edgeStyle=orthogonalEdgeStyle;rounded=0;orthogonalLoop=1;jettySize=auto;html=1;exitX=1;exitY=0;exitDx=0;exitDy=0;entryX=0;entryY=0.5;entryDx=0;entryDy=0;startArrow=classic;startFill=1;" edge="1" parent="1" source="jCN_hGYt88QSV7jJhECM-7" target="jCN_hGYt88QSV7jJhECM-5">
          <mxGeometry relative="1" as="geometry" />
        </mxCell>
        <mxCell id="jCN_hGYt88QSV7jJhECM-29" style="edgeStyle=orthogonalEdgeStyle;rounded=0;orthogonalLoop=1;jettySize=auto;html=1;exitX=1;exitY=1;exitDx=0;exitDy=0;entryX=0.5;entryY=0;entryDx=0;entryDy=0;" edge="1" parent="1" source="jCN_hGYt88QSV7jJhECM-7" target="jCN_hGYt88QSV7jJhECM-3">
          <mxGeometry relative="1" as="geometry" />
        </mxCell>
        <mxCell id="jCN_hGYt88QSV7jJhECM-7" value="Validate user login" style="shape=ellipse;html=1;dashed=0;whiteSpace=wrap;perimeter=ellipsePerimeter;fillColor=#dae8fc;strokeColor=#6c8ebf;" vertex="1" parent="1">
          <mxGeometry x="230" y="60" width="70" height="70" as="geometry" />
        </mxCell>
        <mxCell id="jCN_hGYt88QSV7jJhECM-38" style="edgeStyle=orthogonalEdgeStyle;rounded=0;orthogonalLoop=1;jettySize=auto;html=1;exitX=1;exitY=1;exitDx=0;exitDy=0;entryX=0.5;entryY=0;entryDx=0;entryDy=0;" edge="1" parent="1" source="jCN_hGYt88QSV7jJhECM-8" target="jCN_hGYt88QSV7jJhECM-37">
          <mxGeometry relative="1" as="geometry" />
        </mxCell>
        <mxCell id="jCN_hGYt88QSV7jJhECM-8" value="Click groups tab" style="shape=ellipse;html=1;dashed=0;whiteSpace=wrap;perimeter=ellipsePerimeter;fillColor=#d5e8d4;strokeColor=#82b366;" vertex="1" parent="1">
          <mxGeometry x="930" y="270" width="70" height="70" as="geometry" />
        </mxCell>
        <mxCell id="9p-89qfDhQ7Q1FShynDC-14" style="edgeStyle=orthogonalEdgeStyle;rounded=0;orthogonalLoop=1;jettySize=auto;html=1;entryX=0.5;entryY=0;entryDx=0;entryDy=0;" edge="1" parent="1" source="jCN_hGYt88QSV7jJhECM-9" target="9p-89qfDhQ7Q1FShynDC-13">
          <mxGeometry relative="1" as="geometry">
            <Array as="points">
              <mxPoint x="505" y="350" />
              <mxPoint x="365" y="350" />
            </Array>
          </mxGeometry>
        </mxCell>
        <mxCell id="jCN_hGYt88QSV7jJhECM-9" value="Click expenses tab" style="shape=ellipse;html=1;dashed=0;whiteSpace=wrap;perimeter=ellipsePerimeter;fillColor=#d5e8d4;strokeColor=#82b366;" vertex="1" parent="1">
          <mxGeometry x="480" y="270" width="50" height="50" as="geometry" />
        </mxCell>
        <mxCell id="9p-89qfDhQ7Q1FShynDC-22" style="edgeStyle=orthogonalEdgeStyle;rounded=0;orthogonalLoop=1;jettySize=auto;html=1;entryX=0.5;entryY=0;entryDx=0;entryDy=0;" edge="1" parent="1" source="jCN_hGYt88QSV7jJhECM-10" target="9p-89qfDhQ7Q1FShynDC-15">
          <mxGeometry relative="1" as="geometry" />
        </mxCell>
        <mxCell id="jCN_hGYt88QSV7jJhECM-10" value="Click chores tab" style="shape=ellipse;html=1;dashed=0;whiteSpace=wrap;perimeter=ellipsePerimeter;fillColor=#d5e8d4;strokeColor=#82b366;" vertex="1" parent="1">
          <mxGeometry x="660" y="270" width="50" height="50" as="geometry" />
        </mxCell>
        <mxCell id="jCN_hGYt88QSV7jJhECM-24" style="edgeStyle=orthogonalEdgeStyle;rounded=0;orthogonalLoop=1;jettySize=auto;html=1;exitX=1;exitY=0.5;exitDx=0;exitDy=0;entryX=0;entryY=0.5;entryDx=0;entryDy=0;" edge="1" parent="1" source="jCN_hGYt88QSV7jJhECM-20" target="jCN_hGYt88QSV7jJhECM-7">
          <mxGeometry relative="1" as="geometry" />
        </mxCell>
        <mxCell id="jCN_hGYt88QSV7jJhECM-20" value="Log in" style="shape=ellipse;html=1;dashed=0;whiteSpace=wrap;perimeter=ellipsePerimeter;fillColor=#d5e8d4;strokeColor=#82b366;" vertex="1" parent="1">
          <mxGeometry x="65" y="60" width="70" height="70" as="geometry" />
        </mxCell>
        <mxCell id="jCN_hGYt88QSV7jJhECM-26" style="edgeStyle=orthogonalEdgeStyle;rounded=0;orthogonalLoop=1;jettySize=auto;html=1;exitX=0.5;exitY=1;exitDx=0;exitDy=0;entryX=0.5;entryY=0;entryDx=0;entryDy=0;" edge="1" parent="1" source="jCN_hGYt88QSV7jJhECM-21" target="jCN_hGYt88QSV7jJhECM-25">
          <mxGeometry relative="1" as="geometry" />
        </mxCell>
        <mxCell id="jCN_hGYt88QSV7jJhECM-21" value="Forgot password" style="shape=ellipse;html=1;dashed=0;whiteSpace=wrap;perimeter=ellipsePerimeter;fillColor=#d5e8d4;strokeColor=#82b366;" vertex="1" parent="1">
          <mxGeometry x="200" y="270" width="70" height="70" as="geometry" />
        </mxCell>
        <mxCell id="jCN_hGYt88QSV7jJhECM-25" value="Send email to user" style="shape=ellipse;html=1;dashed=0;whiteSpace=wrap;perimeter=ellipsePerimeter;fillColor=#dae8fc;strokeColor=#6c8ebf;" vertex="1" parent="1">
          <mxGeometry x="200" y="400" width="70" height="70" as="geometry" />
        </mxCell>
        <mxCell id="jCN_hGYt88QSV7jJhECM-45" style="edgeStyle=orthogonalEdgeStyle;rounded=0;orthogonalLoop=1;jettySize=auto;html=1;exitX=0.5;exitY=1;exitDx=0;exitDy=0;" edge="1" parent="1" source="jCN_hGYt88QSV7jJhECM-37" target="jCN_hGYt88QSV7jJhECM-40">
          <mxGeometry relative="1" as="geometry">
            <Array as="points">
              <mxPoint x="970" y="450" />
              <mxPoint x="765" y="450" />
            </Array>
          </mxGeometry>
        </mxCell>
        <mxCell id="jCN_hGYt88QSV7jJhECM-46" style="edgeStyle=orthogonalEdgeStyle;rounded=0;orthogonalLoop=1;jettySize=auto;html=1;exitX=0.5;exitY=1;exitDx=0;exitDy=0;" edge="1" parent="1" source="jCN_hGYt88QSV7jJhECM-37" target="jCN_hGYt88QSV7jJhECM-41">
          <mxGeometry relative="1" as="geometry" />
        </mxCell>
        <mxCell id="jCN_hGYt88QSV7jJhECM-47" style="edgeStyle=orthogonalEdgeStyle;rounded=0;orthogonalLoop=1;jettySize=auto;html=1;exitX=0.5;exitY=1;exitDx=0;exitDy=0;entryX=0.5;entryY=0;entryDx=0;entryDy=0;" edge="1" parent="1" source="jCN_hGYt88QSV7jJhECM-37" target="jCN_hGYt88QSV7jJhECM-42">
          <mxGeometry relative="1" as="geometry" />
        </mxCell>
        <mxCell id="jCN_hGYt88QSV7jJhECM-48" style="edgeStyle=orthogonalEdgeStyle;rounded=0;orthogonalLoop=1;jettySize=auto;html=1;exitX=0.5;exitY=1;exitDx=0;exitDy=0;entryX=0.5;entryY=0;entryDx=0;entryDy=0;" edge="1" parent="1" source="jCN_hGYt88QSV7jJhECM-37" target="jCN_hGYt88QSV7jJhECM-43">
          <mxGeometry relative="1" as="geometry" />
        </mxCell>
        <mxCell id="9p-89qfDhQ7Q1FShynDC-42" style="edgeStyle=orthogonalEdgeStyle;rounded=0;orthogonalLoop=1;jettySize=auto;html=1;exitX=0.5;exitY=1;exitDx=0;exitDy=0;" edge="1" parent="1" source="jCN_hGYt88QSV7jJhECM-37" target="9p-89qfDhQ7Q1FShynDC-40">
          <mxGeometry relative="1" as="geometry">
            <Array as="points">
              <mxPoint x="970" y="450" />
              <mxPoint x="660" y="450" />
            </Array>
          </mxGeometry>
        </mxCell>
        <mxCell id="jCN_hGYt88QSV7jJhECM-37" value="Groups side tab" style="html=1;dashed=0;whiteSpace=wrap;fillColor=#dae8fc;strokeColor=#6c8ebf;" vertex="1" parent="1">
          <mxGeometry x="920" y="360" width="100" height="70" as="geometry" />
        </mxCell>
        <mxCell id="jCN_hGYt88QSV7jJhECM-57" style="edgeStyle=orthogonalEdgeStyle;rounded=0;orthogonalLoop=1;jettySize=auto;html=1;exitX=0.5;exitY=1;exitDx=0;exitDy=0;entryX=0.5;entryY=0;entryDx=0;entryDy=0;" edge="1" parent="1" source="jCN_hGYt88QSV7jJhECM-40" target="jCN_hGYt88QSV7jJhECM-50">
          <mxGeometry relative="1" as="geometry" />
        </mxCell>
        <mxCell id="jCN_hGYt88QSV7jJhECM-40" value="Create group" style="shape=ellipse;html=1;dashed=0;whiteSpace=wrap;perimeter=ellipsePerimeter;fillColor=#d5e8d4;strokeColor=#82b366;" vertex="1" parent="1">
          <mxGeometry x="730" y="470" width="70" height="70" as="geometry" />
        </mxCell>
        <mxCell id="jCN_hGYt88QSV7jJhECM-56" style="edgeStyle=orthogonalEdgeStyle;rounded=0;orthogonalLoop=1;jettySize=auto;html=1;exitX=0.5;exitY=1;exitDx=0;exitDy=0;entryX=0.5;entryY=0;entryDx=0;entryDy=0;" edge="1" parent="1" source="jCN_hGYt88QSV7jJhECM-41" target="jCN_hGYt88QSV7jJhECM-51">
          <mxGeometry relative="1" as="geometry" />
        </mxCell>
        <mxCell id="jCN_hGYt88QSV7jJhECM-41" value="Join group" style="shape=ellipse;html=1;dashed=0;whiteSpace=wrap;perimeter=ellipsePerimeter;fillColor=#d5e8d4;strokeColor=#82b366;" vertex="1" parent="1">
          <mxGeometry x="830" y="470" width="70" height="70" as="geometry" />
        </mxCell>
        <mxCell id="jCN_hGYt88QSV7jJhECM-58" style="edgeStyle=orthogonalEdgeStyle;rounded=0;orthogonalLoop=1;jettySize=auto;html=1;exitX=0.5;exitY=1;exitDx=0;exitDy=0;entryX=0.5;entryY=0;entryDx=0;entryDy=0;" edge="1" parent="1" source="jCN_hGYt88QSV7jJhECM-42" target="jCN_hGYt88QSV7jJhECM-52">
          <mxGeometry relative="1" as="geometry" />
        </mxCell>
        <mxCell id="jCN_hGYt88QSV7jJhECM-42" value="Leave group" style="shape=ellipse;html=1;dashed=0;whiteSpace=wrap;perimeter=ellipsePerimeter;fillColor=#d5e8d4;strokeColor=#82b366;" vertex="1" parent="1">
          <mxGeometry x="935" y="470" width="70" height="70" as="geometry" />
        </mxCell>
        <mxCell id="jCN_hGYt88QSV7jJhECM-54" style="edgeStyle=orthogonalEdgeStyle;rounded=0;orthogonalLoop=1;jettySize=auto;html=1;exitX=0.5;exitY=1;exitDx=0;exitDy=0;entryX=0.5;entryY=0;entryDx=0;entryDy=0;" edge="1" parent="1" source="jCN_hGYt88QSV7jJhECM-43" target="jCN_hGYt88QSV7jJhECM-53">
          <mxGeometry relative="1" as="geometry" />
        </mxCell>
        <mxCell id="jCN_hGYt88QSV7jJhECM-43" value="Delete group" style="shape=ellipse;html=1;dashed=0;whiteSpace=wrap;perimeter=ellipsePerimeter;fillColor=#d5e8d4;strokeColor=#82b366;" vertex="1" parent="1">
          <mxGeometry x="1030" y="470" width="70" height="70" as="geometry" />
        </mxCell>
        <mxCell id="jCN_hGYt88QSV7jJhECM-49" value="&lt;span style=&quot;white-space: pre;&quot;&gt;&#x9;&lt;/span&gt;&amp;nbsp;Groups database" style="html=1;dashed=0;whiteSpace=wrap;shape=mxgraph.dfd.dataStoreID;align=left;spacingLeft=3;points=[[0,0],[0.5,0],[1,0],[0,0.5],[1,0.5],[0,1],[0.5,1],[1,1]];fillColor=#e1d5e7;strokeColor=#9673a6;" vertex="1" parent="1">
          <mxGeometry x="820" y="730" width="150" height="30" as="geometry" />
        </mxCell>
        <mxCell id="jCN_hGYt88QSV7jJhECM-59" style="edgeStyle=orthogonalEdgeStyle;rounded=0;orthogonalLoop=1;jettySize=auto;html=1;exitX=0.5;exitY=1;exitDx=0;exitDy=0;entryX=0.5;entryY=0;entryDx=0;entryDy=0;" edge="1" parent="1" source="jCN_hGYt88QSV7jJhECM-50" target="jCN_hGYt88QSV7jJhECM-49">
          <mxGeometry relative="1" as="geometry" />
        </mxCell>
        <mxCell id="jCN_hGYt88QSV7jJhECM-50" value="Create group with user" style="shape=ellipse;html=1;dashed=0;whiteSpace=wrap;perimeter=ellipsePerimeter;fillColor=#dae8fc;strokeColor=#6c8ebf;" vertex="1" parent="1">
          <mxGeometry x="730" y="600" width="70" height="70" as="geometry" />
        </mxCell>
        <mxCell id="jCN_hGYt88QSV7jJhECM-61" style="edgeStyle=orthogonalEdgeStyle;rounded=0;orthogonalLoop=1;jettySize=auto;html=1;exitX=0.5;exitY=1;exitDx=0;exitDy=0;entryX=0.5;entryY=0;entryDx=0;entryDy=0;" edge="1" parent="1" source="jCN_hGYt88QSV7jJhECM-51" target="jCN_hGYt88QSV7jJhECM-49">
          <mxGeometry relative="1" as="geometry" />
        </mxCell>
        <mxCell id="jCN_hGYt88QSV7jJhECM-51" value="Add user to group" style="shape=ellipse;html=1;dashed=0;whiteSpace=wrap;perimeter=ellipsePerimeter;fillColor=#dae8fc;strokeColor=#6c8ebf;" vertex="1" parent="1">
          <mxGeometry x="830" y="600" width="70" height="70" as="geometry" />
        </mxCell>
        <mxCell id="jCN_hGYt88QSV7jJhECM-62" style="edgeStyle=orthogonalEdgeStyle;rounded=0;orthogonalLoop=1;jettySize=auto;html=1;exitX=0.5;exitY=1;exitDx=0;exitDy=0;entryX=0.5;entryY=0;entryDx=0;entryDy=0;" edge="1" parent="1" source="jCN_hGYt88QSV7jJhECM-52" target="jCN_hGYt88QSV7jJhECM-49">
          <mxGeometry relative="1" as="geometry" />
        </mxCell>
        <mxCell id="jCN_hGYt88QSV7jJhECM-52" value="Remove user from group" style="shape=ellipse;html=1;dashed=0;whiteSpace=wrap;perimeter=ellipsePerimeter;fillColor=#dae8fc;strokeColor=#6c8ebf;" vertex="1" parent="1">
          <mxGeometry x="935" y="600" width="70" height="70" as="geometry" />
        </mxCell>
        <mxCell id="jCN_hGYt88QSV7jJhECM-63" style="edgeStyle=orthogonalEdgeStyle;rounded=0;orthogonalLoop=1;jettySize=auto;html=1;exitX=0.5;exitY=1;exitDx=0;exitDy=0;entryX=0.5;entryY=0;entryDx=0;entryDy=0;" edge="1" parent="1" source="jCN_hGYt88QSV7jJhECM-53" target="jCN_hGYt88QSV7jJhECM-49">
          <mxGeometry relative="1" as="geometry" />
        </mxCell>
        <mxCell id="jCN_hGYt88QSV7jJhECM-53" value="Delete group&amp;nbsp;" style="shape=ellipse;html=1;dashed=0;whiteSpace=wrap;perimeter=ellipsePerimeter;fillColor=#dae8fc;strokeColor=#6c8ebf;" vertex="1" parent="1">
          <mxGeometry x="1030" y="600" width="70" height="70" as="geometry" />
        </mxCell>
        <mxCell id="9p-89qfDhQ7Q1FShynDC-5" value="" style="edgeStyle=orthogonalEdgeStyle;rounded=0;orthogonalLoop=1;jettySize=auto;html=1;exitX=1;exitY=0.25;exitDx=0;exitDy=0;" edge="1" parent="1" source="jCN_hGYt88QSV7jJhECM-6" target="9p-89qfDhQ7Q1FShynDC-4">
          <mxGeometry relative="1" as="geometry">
            <mxPoint x="195" y="225" as="targetPoint" />
          </mxGeometry>
        </mxCell>
        <mxCell id="9p-89qfDhQ7Q1FShynDC-8" style="edgeStyle=orthogonalEdgeStyle;rounded=0;orthogonalLoop=1;jettySize=auto;html=1;exitX=1;exitY=0.5;exitDx=0;exitDy=0;entryX=0;entryY=0.5;entryDx=0;entryDy=0;" edge="1" parent="1" source="9p-89qfDhQ7Q1FShynDC-4" target="9p-89qfDhQ7Q1FShynDC-7">
          <mxGeometry relative="1" as="geometry" />
        </mxCell>
        <mxCell id="9p-89qfDhQ7Q1FShynDC-4" value="Create&amp;nbsp;&lt;div&gt;Account&lt;/div&gt;" style="ellipse;whiteSpace=wrap;html=1;aspect=fixed;fillColor=#d5e8d4;strokeColor=#82b366;" vertex="1" parent="1">
          <mxGeometry x="240" y="140" width="70" height="70" as="geometry" />
        </mxCell>
        <mxCell id="9p-89qfDhQ7Q1FShynDC-11" style="edgeStyle=orthogonalEdgeStyle;rounded=0;orthogonalLoop=1;jettySize=auto;html=1;exitX=1;exitY=0.5;exitDx=0;exitDy=0;entryX=1;entryY=0.5;entryDx=0;entryDy=0;" edge="1" parent="1" source="9p-89qfDhQ7Q1FShynDC-7" target="jCN_hGYt88QSV7jJhECM-6">
          <mxGeometry relative="1" as="geometry" />
        </mxCell>
        <mxCell id="9p-89qfDhQ7Q1FShynDC-7" value="Create user account" style="ellipse;whiteSpace=wrap;html=1;aspect=fixed;fillColor=#dae8fc;strokeColor=#6c8ebf;" vertex="1" parent="1">
          <mxGeometry x="330" y="260" width="50" height="50" as="geometry" />
        </mxCell>
        <mxCell id="9p-89qfDhQ7Q1FShynDC-9" style="edgeStyle=orthogonalEdgeStyle;rounded=0;orthogonalLoop=1;jettySize=auto;html=1;entryX=0.167;entryY=0.933;entryDx=0;entryDy=0;entryPerimeter=0;" edge="1" parent="1" source="9p-89qfDhQ7Q1FShynDC-7" target="jCN_hGYt88QSV7jJhECM-5">
          <mxGeometry relative="1" as="geometry" />
        </mxCell>
        <mxCell id="9p-89qfDhQ7Q1FShynDC-30" style="edgeStyle=orthogonalEdgeStyle;rounded=0;orthogonalLoop=1;jettySize=auto;html=1;entryX=0;entryY=0.5;entryDx=0;entryDy=0;" edge="1" parent="1" source="9p-89qfDhQ7Q1FShynDC-13" target="jCN_hGYt88QSV7jJhECM-10">
          <mxGeometry relative="1" as="geometry" />
        </mxCell>
        <mxCell id="9p-89qfDhQ7Q1FShynDC-32" style="edgeStyle=orthogonalEdgeStyle;rounded=0;orthogonalLoop=1;jettySize=auto;html=1;entryX=0.5;entryY=1;entryDx=0;entryDy=0;" edge="1" parent="1" source="9p-89qfDhQ7Q1FShynDC-13" target="jCN_hGYt88QSV7jJhECM-9">
          <mxGeometry relative="1" as="geometry" />
        </mxCell>
        <mxCell id="9p-89qfDhQ7Q1FShynDC-49" style="edgeStyle=orthogonalEdgeStyle;rounded=0;orthogonalLoop=1;jettySize=auto;html=1;entryX=0.5;entryY=0;entryDx=0;entryDy=0;" edge="1" parent="1" source="9p-89qfDhQ7Q1FShynDC-13" target="9p-89qfDhQ7Q1FShynDC-47">
          <mxGeometry relative="1" as="geometry" />
        </mxCell>
        <mxCell id="9p-89qfDhQ7Q1FShynDC-50" style="edgeStyle=orthogonalEdgeStyle;rounded=0;orthogonalLoop=1;jettySize=auto;html=1;" edge="1" parent="1" source="9p-89qfDhQ7Q1FShynDC-13" target="9p-89qfDhQ7Q1FShynDC-48">
          <mxGeometry relative="1" as="geometry" />
        </mxCell>
        <mxCell id="9p-89qfDhQ7Q1FShynDC-13" value="Expense Screen" style="rounded=0;whiteSpace=wrap;html=1;fillColor=#dae8fc;strokeColor=#6c8ebf;" vertex="1" parent="1">
          <mxGeometry x="330" y="370" width="70" height="40" as="geometry" />
        </mxCell>
        <mxCell id="9p-89qfDhQ7Q1FShynDC-21" style="edgeStyle=orthogonalEdgeStyle;rounded=0;orthogonalLoop=1;jettySize=auto;html=1;entryX=0.5;entryY=1;entryDx=0;entryDy=0;" edge="1" parent="1" source="9p-89qfDhQ7Q1FShynDC-15" target="jCN_hGYt88QSV7jJhECM-10">
          <mxGeometry relative="1" as="geometry" />
        </mxCell>
        <mxCell id="9p-89qfDhQ7Q1FShynDC-28" style="edgeStyle=orthogonalEdgeStyle;rounded=0;orthogonalLoop=1;jettySize=auto;html=1;entryX=1;entryY=0.5;entryDx=0;entryDy=0;" edge="1" parent="1" source="9p-89qfDhQ7Q1FShynDC-15" target="jCN_hGYt88QSV7jJhECM-9">
          <mxGeometry relative="1" as="geometry">
            <Array as="points">
              <mxPoint x="600" y="400" />
              <mxPoint x="600" y="295" />
            </Array>
          </mxGeometry>
        </mxCell>
        <mxCell id="9p-89qfDhQ7Q1FShynDC-38" style="edgeStyle=orthogonalEdgeStyle;rounded=0;orthogonalLoop=1;jettySize=auto;html=1;entryX=0.5;entryY=1;entryDx=0;entryDy=0;" edge="1" parent="1" source="9p-89qfDhQ7Q1FShynDC-15" target="9p-89qfDhQ7Q1FShynDC-33">
          <mxGeometry relative="1" as="geometry" />
        </mxCell>
        <mxCell id="9p-89qfDhQ7Q1FShynDC-53" style="edgeStyle=orthogonalEdgeStyle;rounded=0;orthogonalLoop=1;jettySize=auto;html=1;entryX=0.5;entryY=0;entryDx=0;entryDy=0;" edge="1" parent="1" source="9p-89qfDhQ7Q1FShynDC-15" target="9p-89qfDhQ7Q1FShynDC-51">
          <mxGeometry relative="1" as="geometry">
            <Array as="points">
              <mxPoint x="490" y="410" />
            </Array>
          </mxGeometry>
        </mxCell>
        <mxCell id="9p-89qfDhQ7Q1FShynDC-54" style="edgeStyle=orthogonalEdgeStyle;rounded=0;orthogonalLoop=1;jettySize=auto;html=1;entryX=0.5;entryY=0;entryDx=0;entryDy=0;" edge="1" parent="1" source="9p-89qfDhQ7Q1FShynDC-15" target="9p-89qfDhQ7Q1FShynDC-52">
          <mxGeometry relative="1" as="geometry">
            <Array as="points">
              <mxPoint x="570" y="410" />
            </Array>
          </mxGeometry>
        </mxCell>
        <mxCell id="9p-89qfDhQ7Q1FShynDC-15" value="Chores Screen" style="rounded=0;whiteSpace=wrap;html=1;fillColor=#dae8fc;strokeColor=#6c8ebf;" vertex="1" parent="1">
          <mxGeometry x="650" y="380" width="70" height="50" as="geometry" />
        </mxCell>
        <mxCell id="9p-89qfDhQ7Q1FShynDC-35" style="edgeStyle=orthogonalEdgeStyle;rounded=0;orthogonalLoop=1;jettySize=auto;html=1;entryX=1;entryY=0.75;entryDx=0;entryDy=0;" edge="1" parent="1" source="9p-89qfDhQ7Q1FShynDC-33" target="jCN_hGYt88QSV7jJhECM-3">
          <mxGeometry relative="1" as="geometry" />
        </mxCell>
        <mxCell id="9p-89qfDhQ7Q1FShynDC-33" value="Click Home Button" style="ellipse;whiteSpace=wrap;html=1;aspect=fixed;fillColor=#d5e8d4;strokeColor=#82b366;" vertex="1" parent="1">
          <mxGeometry x="870" y="100" width="70" height="70" as="geometry" />
        </mxCell>
        <mxCell id="9p-89qfDhQ7Q1FShynDC-37" style="edgeStyle=orthogonalEdgeStyle;rounded=0;orthogonalLoop=1;jettySize=auto;html=1;entryX=0.5;entryY=1;entryDx=0;entryDy=0;" edge="1" parent="1" source="9p-89qfDhQ7Q1FShynDC-13" target="9p-89qfDhQ7Q1FShynDC-33">
          <mxGeometry relative="1" as="geometry">
            <Array as="points">
              <mxPoint x="365" y="440" />
              <mxPoint x="905" y="440" />
            </Array>
          </mxGeometry>
        </mxCell>
        <mxCell id="9p-89qfDhQ7Q1FShynDC-39" style="edgeStyle=orthogonalEdgeStyle;rounded=0;orthogonalLoop=1;jettySize=auto;html=1;entryX=0.986;entryY=0.4;entryDx=0;entryDy=0;entryPerimeter=0;" edge="1" parent="1" source="jCN_hGYt88QSV7jJhECM-8" target="9p-89qfDhQ7Q1FShynDC-33">
          <mxGeometry relative="1" as="geometry" />
        </mxCell>
        <mxCell id="9p-89qfDhQ7Q1FShynDC-44" style="edgeStyle=orthogonalEdgeStyle;rounded=0;orthogonalLoop=1;jettySize=auto;html=1;entryX=0.5;entryY=0;entryDx=0;entryDy=0;" edge="1" parent="1" source="9p-89qfDhQ7Q1FShynDC-40" target="9p-89qfDhQ7Q1FShynDC-43">
          <mxGeometry relative="1" as="geometry" />
        </mxCell>
        <mxCell id="9p-89qfDhQ7Q1FShynDC-40" value="Choose group" style="ellipse;whiteSpace=wrap;html=1;aspect=fixed;fillColor=#d5e8d4;strokeColor=#82b366;" vertex="1" parent="1">
          <mxGeometry x="627.5" y="475" width="65" height="65" as="geometry" />
        </mxCell>
        <mxCell id="9p-89qfDhQ7Q1FShynDC-46" style="edgeStyle=orthogonalEdgeStyle;rounded=0;orthogonalLoop=1;jettySize=auto;html=1;exitX=0.5;exitY=1;exitDx=0;exitDy=0;entryX=0.5;entryY=0;entryDx=0;entryDy=0;" edge="1" parent="1" source="9p-89qfDhQ7Q1FShynDC-43" target="jCN_hGYt88QSV7jJhECM-49">
          <mxGeometry relative="1" as="geometry">
            <Array as="points">
              <mxPoint x="660" y="700" />
              <mxPoint x="895" y="700" />
            </Array>
          </mxGeometry>
        </mxCell>
        <mxCell id="9p-89qfDhQ7Q1FShynDC-43" value="Update homepage with group" style="ellipse;whiteSpace=wrap;html=1;aspect=fixed;fillColor=#dae8fc;strokeColor=#6c8ebf;" vertex="1" parent="1">
          <mxGeometry x="625" y="610" width="70" height="70" as="geometry" />
        </mxCell>
        <mxCell id="9p-89qfDhQ7Q1FShynDC-60" style="edgeStyle=orthogonalEdgeStyle;rounded=0;orthogonalLoop=1;jettySize=auto;html=1;entryX=0.5;entryY=0;entryDx=0;entryDy=0;" edge="1" parent="1" source="9p-89qfDhQ7Q1FShynDC-47" target="9p-89qfDhQ7Q1FShynDC-59">
          <mxGeometry relative="1" as="geometry" />
        </mxCell>
        <mxCell id="9p-89qfDhQ7Q1FShynDC-47" value="Add expense" style="ellipse;whiteSpace=wrap;html=1;aspect=fixed;fillColor=#d5e8d4;strokeColor=#82b366;" vertex="1" parent="1">
          <mxGeometry x="280" y="490" width="50" height="50" as="geometry" />
        </mxCell>
        <mxCell id="9p-89qfDhQ7Q1FShynDC-67" style="edgeStyle=orthogonalEdgeStyle;rounded=0;orthogonalLoop=1;jettySize=auto;html=1;entryX=0.5;entryY=0;entryDx=0;entryDy=0;" edge="1" parent="1" source="9p-89qfDhQ7Q1FShynDC-48" target="9p-89qfDhQ7Q1FShynDC-66">
          <mxGeometry relative="1" as="geometry" />
        </mxCell>
        <mxCell id="9p-89qfDhQ7Q1FShynDC-48" value="Pay expense" style="ellipse;whiteSpace=wrap;html=1;aspect=fixed;fillColor=#d5e8d4;strokeColor=#82b366;" vertex="1" parent="1">
          <mxGeometry x="360" y="490" width="50" height="50" as="geometry" />
        </mxCell>
        <mxCell id="9p-89qfDhQ7Q1FShynDC-73" style="edgeStyle=orthogonalEdgeStyle;rounded=0;orthogonalLoop=1;jettySize=auto;html=1;" edge="1" parent="1" source="9p-89qfDhQ7Q1FShynDC-51" target="9p-89qfDhQ7Q1FShynDC-71">
          <mxGeometry relative="1" as="geometry" />
        </mxCell>
        <mxCell id="9p-89qfDhQ7Q1FShynDC-51" value="Add Chore" style="ellipse;whiteSpace=wrap;html=1;aspect=fixed;fillColor=#d5e8d4;strokeColor=#82b366;" vertex="1" parent="1">
          <mxGeometry x="460" y="490" width="60" height="60" as="geometry" />
        </mxCell>
        <mxCell id="9p-89qfDhQ7Q1FShynDC-74" style="edgeStyle=orthogonalEdgeStyle;rounded=0;orthogonalLoop=1;jettySize=auto;html=1;" edge="1" parent="1" source="9p-89qfDhQ7Q1FShynDC-52" target="9p-89qfDhQ7Q1FShynDC-72">
          <mxGeometry relative="1" as="geometry" />
        </mxCell>
        <mxCell id="9p-89qfDhQ7Q1FShynDC-52" value="Complete chore" style="ellipse;whiteSpace=wrap;html=1;aspect=fixed;fillColor=#d5e8d4;strokeColor=#82b366;" vertex="1" parent="1">
          <mxGeometry x="540" y="490" width="60" height="60" as="geometry" />
        </mxCell>
        <mxCell id="9p-89qfDhQ7Q1FShynDC-55" value="Expense Database" style="rounded=0;whiteSpace=wrap;html=1;fillColor=#e1d5e7;strokeColor=#9673a6;" vertex="1" parent="1">
          <mxGeometry x="65" y="670" width="140" height="30" as="geometry" />
        </mxCell>
        <mxCell id="9p-89qfDhQ7Q1FShynDC-69" style="edgeStyle=orthogonalEdgeStyle;rounded=0;orthogonalLoop=1;jettySize=auto;html=1;" edge="1" parent="1" source="9p-89qfDhQ7Q1FShynDC-58" target="9p-89qfDhQ7Q1FShynDC-66">
          <mxGeometry relative="1" as="geometry" />
        </mxCell>
        <mxCell id="9p-89qfDhQ7Q1FShynDC-58" value="Venmo" style="rounded=0;whiteSpace=wrap;html=1;fillColor=#e1d5e7;strokeColor=#9673a6;" vertex="1" parent="1">
          <mxGeometry x="290" y="670" width="120" height="30" as="geometry" />
        </mxCell>
        <mxCell id="9p-89qfDhQ7Q1FShynDC-75" style="edgeStyle=orthogonalEdgeStyle;rounded=0;orthogonalLoop=1;jettySize=auto;html=1;entryX=0.5;entryY=0;entryDx=0;entryDy=0;" edge="1" parent="1" source="9p-89qfDhQ7Q1FShynDC-59" target="9p-89qfDhQ7Q1FShynDC-55">
          <mxGeometry relative="1" as="geometry" />
        </mxCell>
        <mxCell id="9p-89qfDhQ7Q1FShynDC-59" value="validate addition" style="ellipse;whiteSpace=wrap;html=1;aspect=fixed;fillColor=#dae8fc;strokeColor=#6c8ebf;" vertex="1" parent="1">
          <mxGeometry x="230" y="570" width="50" height="50" as="geometry" />
        </mxCell>
        <mxCell id="9p-89qfDhQ7Q1FShynDC-68" style="edgeStyle=orthogonalEdgeStyle;rounded=0;orthogonalLoop=1;jettySize=auto;html=1;entryX=0.25;entryY=0;entryDx=0;entryDy=0;" edge="1" parent="1" source="9p-89qfDhQ7Q1FShynDC-66" target="9p-89qfDhQ7Q1FShynDC-58">
          <mxGeometry relative="1" as="geometry" />
        </mxCell>
        <mxCell id="9p-89qfDhQ7Q1FShynDC-70" style="edgeStyle=orthogonalEdgeStyle;rounded=0;orthogonalLoop=1;jettySize=auto;html=1;entryX=1;entryY=0.75;entryDx=0;entryDy=0;" edge="1" parent="1" source="9p-89qfDhQ7Q1FShynDC-66" target="9p-89qfDhQ7Q1FShynDC-55">
          <mxGeometry relative="1" as="geometry">
            <Array as="points">
              <mxPoint x="283" y="605" />
              <mxPoint x="283" y="693" />
            </Array>
          </mxGeometry>
        </mxCell>
        <mxCell id="9p-89qfDhQ7Q1FShynDC-66" value="Validate payment" style="ellipse;whiteSpace=wrap;html=1;aspect=fixed;fillColor=#dae8fc;strokeColor=#6c8ebf;" vertex="1" parent="1">
          <mxGeometry x="360" y="580" width="50" height="50" as="geometry" />
        </mxCell>
        <mxCell id="9p-89qfDhQ7Q1FShynDC-78" style="edgeStyle=orthogonalEdgeStyle;rounded=0;orthogonalLoop=1;jettySize=auto;html=1;entryX=0.5;entryY=0;entryDx=0;entryDy=0;" edge="1" parent="1" source="9p-89qfDhQ7Q1FShynDC-71" target="9p-89qfDhQ7Q1FShynDC-77">
          <mxGeometry relative="1" as="geometry" />
        </mxCell>
        <mxCell id="9p-89qfDhQ7Q1FShynDC-71" value="Add chore to group" style="ellipse;whiteSpace=wrap;html=1;aspect=fixed;fillColor=#dae8fc;strokeColor=#6c8ebf;" vertex="1" parent="1">
          <mxGeometry x="460" y="590" width="60" height="60" as="geometry" />
        </mxCell>
        <mxCell id="9p-89qfDhQ7Q1FShynDC-79" style="edgeStyle=orthogonalEdgeStyle;rounded=0;orthogonalLoop=1;jettySize=auto;html=1;entryX=0.5;entryY=0;entryDx=0;entryDy=0;" edge="1" parent="1" source="9p-89qfDhQ7Q1FShynDC-72" target="9p-89qfDhQ7Q1FShynDC-77">
          <mxGeometry relative="1" as="geometry" />
        </mxCell>
        <mxCell id="9p-89qfDhQ7Q1FShynDC-72" value="Remove chore from group" style="ellipse;whiteSpace=wrap;html=1;aspect=fixed;fillColor=#dae8fc;strokeColor=#6c8ebf;" vertex="1" parent="1">
          <mxGeometry x="535" y="582.5" width="67.5" height="67.5" as="geometry" />
        </mxCell>
        <mxCell id="9p-89qfDhQ7Q1FShynDC-77" value="Chore Database" style="shape=process;whiteSpace=wrap;html=1;backgroundOutline=1;fillColor=#e1d5e7;strokeColor=#9673a6;" vertex="1" parent="1">
          <mxGeometry x="460" y="720" width="140" height="40" as="geometry" />
        </mxCell>
      </root>
    </mxGraphModel>
  </diagram>
</mxfile>
